<svg xmlns="http://www.w3.org/2000/svg" version="1.1" xmlns:xlink="http://www.w3.org/1999/xlink" xmlns:svgjs="http://svgjs.com/svgjs" width="1440" height="560" preserveAspectRatio="none" viewBox="0 0 1440 560">
    <g mask="url(&quot;#SvgjsMask1015&quot;)" fill="none">
        <path d="M233.4 459.15 a170.69 170.69 0 1 0 341.38 0 a170.69 170.69 0 1 0 -341.38 0z" fill="rgba(28, 83, 142, 0.4)" class="triangle-float2"></path>
        <path d="M1398.694,634.096C1454.53,632.771,1506.502,605.187,1534.669,556.958C1563.08,508.311,1563.088,448.58,1535.834,399.275C1507.643,348.275,1456.941,312.711,1398.694,310.972C1337.379,309.142,1277.541,337.674,1246.599,390.64C1215.404,444.04,1218.297,511.237,1251.064,563.687C1282.025,613.246,1340.275,635.482,1398.694,634.096" fill="rgba(28, 83, 142, 0.4)" class="triangle-float2"></path>
        <path d="M908.468,327.347C944.797,324.894,977.358,306.712,996.27,275.596C1016.011,243.117,1022.802,202.774,1004.392,169.522C985.468,135.342,947.52,115.862,908.468,117.011C871.264,118.105,842.033,143.622,821.844,174.891C799.225,209.923,776.806,252.769,797.406,289.025C818.142,325.519,866.589,330.175,908.468,327.347" fill="rgba(28, 83, 142, 0.4)" class="triangle-float1"></path>
        <path d="M51.465,373.172C82.722,374.492,116.835,368.095,133.039,341.333C149.672,313.862,141.117,279.557,124.948,251.81C108.913,224.293,83.272,202.954,51.465,201.344C16.751,199.587,-19.925,212.914,-36.141,243.657C-51.618,272.998,-37.575,307.435,-18.989,334.912C-2.941,358.637,22.848,371.963,51.465,373.172" fill="rgba(28, 83, 142, 0.4)" class="triangle-float3"></path>
        <path d="M122.85199102915647 400.8693828199063L-16.099356605916114 451.44353737024824 34.4747979444258 590.3948850053208 173.42614557949838 539.820730454979z" fill="rgba(28, 83, 142, 0.4)" class="triangle-float1"></path>
        <path d="M769.49 197.68 a157.1 157.1 0 1 0 314.2 0 a157.1 157.1 0 1 0 -314.2 0z" fill="rgba(28, 83, 142, 0.4)" class="triangle-float3"></path>
        <path d="M412.39 23.63 a143.56 143.56 0 1 0 287.12 0 a143.56 143.56 0 1 0 -287.12 0z" fill="rgba(28, 83, 142, 0.4)" class="triangle-float3"></path>
        <path d="M61.83 319.37 a129.68 129.68 0 1 0 259.36 0 a129.68 129.68 0 1 0 -259.36 0z" fill="rgba(28, 83, 142, 0.4)" class="triangle-float2"></path>
        <path d="M1168.82 9.11 a147.03 147.03 0 1 0 294.06 0 a147.03 147.03 0 1 0 -294.06 0z" fill="rgba(28, 83, 142, 0.4)" class="triangle-float2"></path>
        <path d="M451.1639139939796 93.97214446773715L410.07344414592797-32.49131811840732 283.6099815597835 8.599151729644277 324.7004514078351 135.06261431578875z" fill="rgba(28, 83, 142, 0.4)" class="triangle-float3"></path>
        <path d="M1496.51,662.856C1546.828,666.045,1596.624,640.289,1620.827,596.059C1644.227,553.298,1632.763,501.888,1607.361,460.285C1583.166,420.659,1542.893,394.521,1496.51,392.454C1446.028,390.205,1390.659,404.867,1367.118,449.58C1344.554,492.436,1371.667,540.451,1396.789,581.859C1420.596,621.1,1450.704,659.953,1496.51,662.856" fill="rgba(28, 83, 142, 0.4)" class="triangle-float3"></path>
        <path d="M49.392,382.979C89.798,380.733,124.498,357.952,145.83,323.563C168.581,286.886,180.588,241.93,160.624,203.665C139.338,162.867,95.404,138.038,49.392,138.72C4.475,139.386,-33.307,168.271,-56.27,206.881C-79.837,246.507,-91.32,295.896,-67.599,335.43C-44.386,374.117,4.345,385.484,49.392,382.979" fill="rgba(28, 83, 142, 0.4)" class="triangle-float1"></path>
        <path d="M546.807,581.754C594.27,577.766,634.486,549.901,658.296,508.65C682.101,467.407,688.74,417.311,665.816,375.572C642.077,332.35,596.118,305.345,546.807,305.656C498.01,305.963,457.375,336.413,430.367,377.055C399.316,423.781,369.603,481.81,397.342,530.575C425.249,579.635,490.563,586.48,546.807,581.754" fill="rgba(28, 83, 142, 0.4)" class="triangle-float2"></path>
        <path d="M1562.901535849251 165.21355735364898L1460.1961987928514 42.814102938085355 1337.7967443772877 145.51943999448514 1440.5020814336874 267.9188944100488z" fill="rgba(28, 83, 142, 0.4)" class="triangle-float1"></path>
        <path d="M749.2 9.54 a99.95 99.95 0 1 0 199.9 0 a99.95 99.95 0 1 0 -199.9 0z" fill="rgba(28, 83, 142, 0.4)" class="triangle-float1"></path>
        <path d="M451.35 52.13 a155.02 155.02 0 1 0 310.04 0 a155.02 155.02 0 1 0 -310.04 0z" fill="rgba(28, 83, 142, 0.4)" class="triangle-float2"></path>
        <path d="M756.1422663900362 418.9323079195339L833.5445379350034 511.1767431082011 925.7889731236705 433.7744715632339 848.3867015787034 341.5300363745667z" fill="rgba(28, 83, 142, 0.4)" class="triangle-float3"></path>
        <path d="M407.22,240.634C443.807,239.89,465.395,203.792,482.987,171.703C499.651,141.306,514.698,105.932,497.595,75.78C480.337,45.356,442.189,38.909,407.22,38.13C370.357,37.309,328.429,39.897,309.589,71.592C290.497,103.711,307.236,142.539,325.923,174.895C344.604,207.24,369.876,241.393,407.22,240.634" fill="rgba(28, 83, 142, 0.4)" class="triangle-float3"></path>
        <path d="M144.94,173.302C167.46,172.878,189.667,163.703,200.837,144.144C211.927,124.726,208.985,100.707,197.28,81.653C186.135,63.511,166.231,52.905,144.94,53.155C124.086,53.4,105.937,65.297,94.689,82.859C82.327,102.161,74.138,126.285,85.27,146.321C96.633,166.772,121.548,173.743,144.94,173.302" fill="rgba(28, 83, 142, 0.4)" class="triangle-float3"></path>
        <path d="M1215.39 191.75 a157.07 157.07 0 1 0 314.14 0 a157.07 157.07 0 1 0 -314.14 0z" fill="rgba(28, 83, 142, 0.4)" class="triangle-float1"></path>
    </g>
    <defs>
        <mask id="SvgjsMask1015">
            <rect width="1440" height="560" fill="#ffffff"></rect>
        </mask>
        <style>
            @keyframes float1 {
                0%{transform: translate(0, 0)}
                50%{transform: translate(-10px, 0)}
                100%{transform: translate(0, 0)}
            }

            .triangle-float1 {
                animation: float1 5s infinite;
            }

            @keyframes float2 {
                0%{transform: translate(0, 0)}
                50%{transform: translate(-5px, -5px)}
                100%{transform: translate(0, 0)}
            }

            .triangle-float2 {
                animation: float2 4s infinite;
            }

            @keyframes float3 {
                0%{transform: translate(0, 0)}
                50%{transform: translate(0, -10px)}
                100%{transform: translate(0, 0)}
            }

            .triangle-float3 {
                animation: float3 6s infinite;
            }
        </style>
    </defs>
</svg>