<?xml version="1.0" encoding="UTF-8"?>
<svg width="651.99" height="369.59" version="1.1" viewBox="0 0 651.99 369.59" xml:space="preserve" xmlns="http://www.w3.org/2000/svg" xmlns:xlink="http://www.w3.org/1999/xlink">
    <defs>
      <style>
         .first{
            animation: fade-out 1100ms 100ms infinite;
         }
         .second{
            animation: fade-out 1000ms infinite;
         }
         .third{
            animation: fade-out 900ms 500ms infinite;
         }

         @keyframes fade-out{
            100%{
               opacity: 0;
               transform: translateX(-100px) translateY(100px);
            }
         }
      </style>
    </defs>
<g transform="rotate(44.93 328.43 299.47)" fill="current">
	<polygon points="201.01 385.2 80.407 264.6 51.559 308.82 156.8 414.05"/>
	<polygon points="22.961 181.42 84.654 201.07 198.67 87.057 113.18 91.204"/>
	<polygon points="378.55 266.94 264.54 380.96 284.19 442.65 374.41 352.43"/>
	<path class="first" d="m1e-3 360.61 33.999-34 21.213 21.213-33.999 33.999z"/>
	<path class="second" d="m104.99 465.61-21.213-21.213 33.999-34 21.213 21.213z"/>
	<path class="third" d="m25.021 417.88 50.122-50.122 21.213 21.213-50.122 50.122z"/><path d="m-17.379 460.29 42.404-42.423 21.209 21.217-42.404 42.423z" opacity="0" stroke-width=".91989"/>
	<circle cx="371.71" cy="94.418" r="39.755" stroke-width="2.6504"/>
	<path d="m454.97 10.643c-58.835-22.219-127.81-9.648-175.17 37.712l-186.6 186.6 137.46 137.46 186.6-186.6c47.36-47.36 59.93-116.34 37.712-175.17zm-58.208 121.85c-17.574 17.573-46.066 17.573-63.64 0-17.574-17.574-17.574-46.066 0-63.64s46.066-17.574 63.64 0c17.573 17.574 17.573 46.067 0 63.64z"/>
</g>
</svg>
