<?xml version="1.0" encoding="iso-8859-1"?>
<!-- Generator: Adobe Illustrator 16.0.0, SVG Export Plug-In . SVG Version: 6.00 Build 0)  -->
<!DOCTYPE svg PUBLIC "-//W3C//DTD SVG 1.1//EN" "http://www.w3.org/Graphics/SVG/1.1/DTD/svg11.dtd">
<svg version="1.1" id="Capa_1" xmlns="http://www.w3.org/2000/svg" xmlns:xlink="http://www.w3.org/1999/xlink" x="0px" y="0px"
	 width="606.33px" height="606.33px" viewBox="0 0 606.33 606.33" style="enable-background:new 0 0 606.33 606.33;"
	 xml:space="preserve">
<g>
	<g>
		<rect fill="#FD76CB" x="46.641" y="479.363" width="46.641" height="36.275"/>
		<rect fill="#FD76CB" x="523.412" y="479.363" width="46.643" height="36.275"/>
		<path fill="#FD76CB" d="M0,132.149V266.89h257.451v-57.007h94.391v57.007H606.33V132.149c0-22.897-18.562-41.458-41.459-41.458H41.458
			C18.561,90.691,0,109.252,0,132.149z"/>
		<path fill="#FD76CB" d="M0,411.99c0,22.898,18.561,41.459,41.458,41.459h523.413c22.896,0,41.459-18.561,41.459-41.459V297.982H351.842v22.95
			c0,24.533-19.885,44.418-44.418,44.418h-5.55c-24.533,0-44.418-19.885-44.418-44.418v-22.95H0V411.99z"/>
	</g>
</g>
<g>
</g>
<g>
</g>
<g>
</g>
<g>
</g>
<g>
</g>
<g>
</g>
<g>
</g>
<g>
</g>
<g>
</g>
<g>
</g>
<g>
</g>
<g>
</g>
<g>
</g>
<g>
</g>
<g>
</g>
</svg>
